<svg xmlns="http://www.w3.org/2000/svg" xmlns:xlink="http://www.w3.org/1999/xlink" version="1.1" width="24" height="24"  viewBox="0 0 18 18"><g><path d="M9,0 A9,9 0 0 0 0,9 A9,9 0 0 0 9,18 A9,9 0 0 0 18,9 C18,8.5 17.959999084472656,8 17.8700008392334,7.5 C17.600000381469727,7 17,7 17,7 H15 V6 C15,5 14,5 14,5 H12 V4 C12,3 11,3 11,3 H10 V1 C10,0 9,0 9,0 M6.5,3 A1.5,1.5 0 0 1 8,4.5 A1.5,1.5 0 0 1 6.5,6 A1.5,1.5 0 0 1 5,4.5 A1.5,1.5 0 0 1 6.5,3 M3.5,7 A1.5,1.5 0 0 1 5,8.5 A1.5,1.5 0 0 1 3.5,10 A1.5,1.5 0 0 1 2,8.5 A1.5,1.5 0 0 1 3.5,7 M8.5,8 A1.5,1.5 0 0 1 10,9.5 A1.5,1.5 0 0 1 8.5,11 A1.5,1.5 0 0 1 7,9.5 A1.5,1.5 0 0 1 8.5,8 M13.5,10 A1.5,1.5 0 0 1 15,11.5 A1.5,1.5 0 0 1 13.5,13 H13.5 A1.5,1.5 0 0 1 12,11.5 H12 A1.5,1.5 0 0 1 13.5,10 M8,13 A1.5,1.5 0 0 1 9.5,14.5 A1.5,1.5 0 0 1 8,16 A1.5,1.5 0 0 1 6.5,14.5 A1.5,1.5 0 0 1 8,13 z"   class=""/></g></svg>
